<svg preserveAspectRatio="none" overflow="visible" style="display: block;" width="14" height="14" viewBox="0 0 14 14" fill="none" xmlns="http://www.w3.org/2000/svg">
<g id="copy-02">
<path id="Icon" d="M9.33333 4.66667V3.03333C9.33333 2.37994 9.33333 2.05324 9.20617 1.80368C9.09432 1.58416 8.91585 1.40568 8.69632 1.29383C8.44676 1.16667 8.12006 1.16667 7.46667 1.16667H3.03333C2.37994 1.16667 2.05324 1.16667 1.80368 1.29383C1.58416 1.40568 1.40568 1.58416 1.29383 1.80368C1.16667 2.05324 1.16667 2.37994 1.16667 3.03333V7.46667C1.16667 8.12006 1.16667 8.44676 1.29383 8.69632C1.40568 8.91585 1.58416 9.09432 1.80368 9.20617C2.05324 9.33333 2.37994 9.33333 3.03333 9.33333H4.66667M6.53333 12.8333H10.9667C11.6201 12.8333 11.9468 12.8333 12.1963 12.7062C12.4158 12.5943 12.5943 12.4158 12.7062 12.1963C12.8333 11.9468 12.8333 11.6201 12.8333 10.9667V6.53333C12.8333 5.87994 12.8333 5.55324 12.7062 5.30368C12.5943 5.08416 12.4158 4.90568 12.1963 4.79383C11.9468 4.66667 11.6201 4.66667 10.9667 4.66667H6.53333C5.87994 4.66667 5.55324 4.66667 5.30368 4.79383C5.08416 4.90568 4.90568 5.08416 4.79383 5.30368C4.66667 5.55324 4.66667 5.87994 4.66667 6.53333V10.9667C4.66667 11.6201 4.66667 11.9468 4.79383 12.1963C4.90568 12.4158 5.08416 12.5943 5.30368 12.7062C5.55324 12.8333 5.87994 12.8333 6.53333 12.8333Z" stroke="#A4A4A4" stroke-width="1.4" stroke-linecap="round" stroke-linejoin="round"/>
</g>
</svg>
