<svg preserveAspectRatio="none" overflow="visible" style="display: block;" width="12" height="12" viewBox="0 0 12 12" fill="none" xmlns="http://www.w3.org/2000/svg">
<g id="fluent:globe-32-filled">
<path id="Vector" d="M4.125 6C4.125 5.47762 4.15425 4.97475 4.20825 4.5H7.79175C7.84575 4.97475 7.875 5.47762 7.875 6C7.875 6.52238 7.84575 7.02525 7.79175 7.5H4.20825C4.15268 7.00193 4.12489 6.50116 4.125 6ZM3.45375 7.5C3.40115 7.00173 3.37486 6.50104 3.375 6C3.375 5.48288 3.40238 4.98 3.45375 4.5H0.967502C0.822828 4.98685 0.749565 5.49211 0.750002 6C0.750002 6.52125 0.826127 7.02488 0.967502 7.5H3.45375ZM1.25513 8.25H3.55688C3.67463 8.9475 3.846 9.58013 4.06088 10.1168C4.19925 10.4625 4.35825 10.776 4.53788 11.0438C3.82456 10.8361 3.16327 10.4797 2.59748 9.99823C2.0317 9.51672 1.57422 8.92093 1.25513 8.25ZM4.31813 8.25H7.68188C7.57313 8.85 7.42313 9.387 7.24313 9.83813C7.04963 10.3211 6.82913 10.6864 6.60338 10.9256C6.37838 11.1634 6.17438 11.25 6 11.25C5.82563 11.25 5.62163 11.1634 5.39663 10.9253C5.17088 10.6864 4.95038 10.3211 4.75725 9.83813C4.57688 9.387 4.42688 8.84962 4.31813 8.25ZM8.44313 8.25C8.32538 8.9475 8.154 9.58013 7.93913 10.1168C7.80075 10.4625 7.64175 10.776 7.46213 11.0438C8.17545 10.8361 8.83673 10.4797 9.40252 9.99823C9.96831 9.51672 10.4258 8.92093 10.7449 8.25H8.44313ZM11.0325 7.5C11.1739 7.02488 11.25 6.52125 11.25 6C11.25 5.47875 11.1739 4.97512 11.0325 4.5H8.54625C8.59763 4.98 8.625 5.48288 8.625 6C8.625 6.51712 8.59763 7.02 8.54625 7.5H11.0325ZM7.24275 2.16187C7.42313 2.613 7.57313 3.15038 7.68188 3.75H4.31813C4.42688 3.15 4.57688 2.613 4.75688 2.16187C4.95038 1.67887 5.17088 1.31325 5.39663 1.07438C5.62088 0.83775 5.82413 0.75075 5.99813 0.75H6.00113C6.17513 0.75 6.37875 0.837375 6.60338 1.07475C6.82913 1.31325 7.04963 1.67887 7.24275 2.16187ZM8.44313 3.75H10.7449C10.4258 3.07907 9.96831 2.48328 9.40252 2.00177C8.83673 1.52026 8.17545 1.16395 7.46213 0.95625C7.64175 1.224 7.80075 1.5375 7.93913 1.88325C8.154 2.41987 8.32538 3.0525 8.44313 3.75ZM1.25513 3.75H3.55688C3.67463 3.0525 3.846 2.41987 4.06088 1.88325C4.19925 1.5375 4.35825 1.224 4.53788 0.95625C3.82456 1.16395 3.16327 1.52026 2.59748 2.00177C2.0317 2.48328 1.57422 3.07907 1.25513 3.75Z" fill="white"/>
</g>
</svg>
